<svg width="2002" height="326" viewBox="0 0 2002 326" fill="none" xmlns="http://www.w3.org/2000/svg">
<mask id="mask0_299_4424" style="mask-type:alpha" maskUnits="userSpaceOnUse" x="0" y="0" width="2002" height="326">
<rect width="2002" height="326" fill="#D9D9D9"/>
</mask>
<g mask="url(#mask0_299_4424)">
<path d="M88.01 6.09298C89.534 0.713264 94.4453 -3 100.037 -3H493.467C501.76 -3 507.754 4.92794 505.494 12.907L419.99 314.735C418.466 320.115 413.555 323.828 407.963 323.828H14.533C6.2399 323.828 0.245875 315.9 2.50623 307.921L88.01 6.09298Z" fill="white"/>
<path d="M88.01 6.09298C89.534 0.713264 94.4453 -3 100.037 -3H493.467C501.76 -3 507.754 4.92794 505.494 12.907L419.99 314.735C418.466 320.115 413.555 323.828 407.963 323.828H14.533C6.2399 323.828 0.245875 315.9 2.50623 307.921L88.01 6.09298Z" fill="white"/>
<g clip-path="url(#clip0_299_4424)">
<path d="M351.345 164.716C353.909 164.716 355.987 162.768 355.987 160.365C355.987 157.963 353.909 156.015 351.345 156.015C348.781 156.015 346.702 157.963 346.702 160.365C346.702 162.768 348.781 164.716 351.345 164.716Z" fill="url(#paint0_linear_299_4424)"/>
<path d="M295.633 125.564C298.197 125.564 300.276 123.616 300.276 121.213C300.276 118.811 298.197 116.863 295.633 116.863C293.069 116.863 290.991 118.811 290.991 121.213C290.991 123.616 293.069 125.564 295.633 125.564Z" fill="url(#paint1_linear_299_4424)"/>
<path d="M295.633 203.868C298.197 203.868 300.276 201.92 300.276 199.517C300.276 197.115 298.197 195.167 295.633 195.167C293.069 195.167 290.991 197.115 290.991 199.517C290.991 201.92 293.069 203.868 295.633 203.868Z" fill="url(#paint2_linear_299_4424)"/>
<path d="M212.067 125.564C214.631 125.564 216.709 123.616 216.709 121.213C216.709 118.811 214.631 116.863 212.067 116.863C209.503 116.863 207.424 118.811 207.424 121.213C207.424 123.616 209.503 125.564 212.067 125.564Z" fill="url(#paint3_linear_299_4424)"/>
<path d="M212.067 203.868C214.631 203.868 216.709 201.92 216.709 199.517C216.709 197.115 214.631 195.167 212.067 195.167C209.503 195.167 207.424 197.115 207.424 199.517C207.424 201.92 209.503 203.868 212.067 203.868Z" fill="url(#paint4_linear_299_4424)"/>
<path d="M156.356 164.716C158.92 164.716 160.999 162.768 160.999 160.365C160.999 157.963 158.92 156.015 156.356 156.015C153.792 156.015 151.713 157.963 151.713 160.365C151.713 162.768 153.792 164.716 156.356 164.716Z" fill="url(#paint5_linear_299_4424)"/>
<path d="M162.856 105.553C162.856 93.5592 152.442 83.8017 139.643 83.8017C137.079 83.8017 135 81.8537 135 79.4515C135 77.0493 137.079 75.1013 139.643 75.1013C152.442 75.1013 162.856 65.3437 162.856 53.3502C162.856 50.948 164.934 49 167.498 49C170.062 49 172.141 50.948 172.141 53.3502C172.141 65.3437 182.554 75.1013 195.354 75.1013C197.917 75.1013 199.996 77.0493 199.996 79.4515C199.996 81.8537 197.917 83.8017 195.354 83.8017C182.554 83.8017 172.141 93.5592 172.141 105.553C172.141 107.955 170.062 109.903 167.498 109.903C164.934 109.903 162.856 107.955 162.856 105.553Z" fill="url(#paint6_linear_299_4424)"/>
<path d="M340.202 211.328C342.521 211.328 344.345 213.083 344.345 215.178C344.345 227.478 355.013 237.429 368.058 237.429C370.376 237.429 372.2 239.183 372.2 241.279C372.2 243.375 370.376 245.13 368.058 245.13C355.013 245.13 344.345 255.081 344.345 267.381C344.345 269.477 342.521 271.231 340.202 271.231C337.884 271.231 336.06 269.477 336.06 267.381C336.06 255.081 325.391 245.13 312.347 245.13C310.028 245.13 308.204 243.375 308.204 241.279C308.204 239.183 310.028 237.429 312.347 237.429C325.391 237.429 336.059 227.478 336.06 215.178C336.06 213.083 337.884 211.328 340.202 211.328Z" fill="url(#paint7_linear_299_4424)" stroke="url(#paint8_linear_299_4424)"/>
<path d="M295.633 156.015C275.154 156.015 258.493 140.403 258.493 121.213C258.493 118.811 256.414 116.863 253.85 116.863C251.287 116.863 249.208 118.811 249.208 121.213C249.208 140.403 232.546 156.015 212.067 156.015C209.503 156.015 207.424 157.963 207.424 160.365C207.424 162.768 209.503 164.716 212.067 164.716C232.546 164.716 249.208 180.328 249.208 199.517C249.208 201.92 251.287 203.868 253.85 203.868C256.414 203.868 258.493 201.92 258.493 199.517C258.493 180.328 275.154 164.716 295.633 164.716C298.197 164.716 300.276 162.768 300.276 160.365C300.276 157.963 298.197 156.015 295.633 156.015Z" fill="url(#paint9_linear_299_4424)"/>
<path d="M184.211 243.019C186.775 243.019 188.854 241.071 188.854 238.669V229.969H198.139C200.703 229.969 202.782 228.021 202.782 225.619C202.782 223.216 200.703 221.268 198.139 221.268H188.854V212.568C188.854 210.166 186.775 208.218 184.211 208.218C181.648 208.218 179.569 210.166 179.569 212.568V221.268H170.284C167.72 221.268 165.641 223.216 165.641 225.619C165.641 228.021 167.72 229.969 170.284 229.969H179.569V238.669C179.569 241.071 181.648 243.019 184.211 243.019Z" fill="url(#paint10_linear_299_4424)"/>
<path d="M323.489 112.513C326.052 112.513 328.131 110.565 328.131 108.163V99.4625H337.417C339.98 99.4625 342.059 97.5145 342.059 95.1123C342.059 92.7101 339.98 90.7621 337.417 90.7621H328.131V82.0616C328.131 79.6595 326.052 77.7114 323.489 77.7114C320.925 77.7114 318.846 79.6595 318.846 82.0616V90.7621H309.561C306.997 90.7621 304.918 92.7101 304.918 95.1123C304.918 97.5145 306.997 99.4625 309.561 99.4625H318.846V108.163C318.846 110.565 320.925 112.513 323.489 112.513Z" fill="url(#paint11_linear_299_4424)"/>
<path d="M253.85 49C251.286 49 249.208 50.948 249.208 53.3502V62.0506H239.922C237.359 62.0506 235.28 63.9987 235.28 66.4008C235.28 68.803 237.359 70.7511 239.922 70.7511H249.208V79.4515C249.208 81.8537 251.286 83.8017 253.85 83.8017C256.414 83.8017 258.493 81.8537 258.493 79.4515V70.7511H267.778C270.342 70.7511 272.42 68.803 272.42 66.4008C272.42 63.9987 270.342 62.0506 267.778 62.0506H258.493V53.3502C258.493 50.948 256.414 49 253.85 49Z" fill="url(#paint12_linear_299_4424)"/>
<path d="M253.85 271.731C256.414 271.731 258.493 269.783 258.493 267.381V258.68H267.778C270.342 258.68 272.42 256.732 272.42 254.33C272.42 251.928 270.342 249.98 267.778 249.98H258.493V241.279C258.493 238.877 256.414 236.929 253.85 236.929C251.286 236.929 249.208 238.877 249.208 241.279V249.98H239.922C237.359 249.98 235.28 251.928 235.28 254.33C235.28 256.732 237.359 258.68 239.922 258.68H249.208V267.381C249.208 269.783 251.286 271.731 253.85 271.731Z" fill="url(#paint13_linear_299_4424)"/>
</g>
<path d="M536.504 324C525.441 324 521.831 318.93 525.672 308.789L638.602 12.1758C643.365 -0.269531 650.586 -6.49219 660.266 -6.49219H692.531C702.211 -6.49219 709.432 -0.269531 714.195 12.1758L827.125 308.789C830.966 318.93 827.355 324 816.293 324H779.648C769.508 324 762.44 318.699 758.445 308.098L734.938 246.102H617.859L594.352 308.098C590.357 318.699 583.289 324 573.148 324H536.504ZM639.293 188.945H713.504L685.156 115.656C681.776 107.052 679.702 100.829 678.934 96.9883C678.319 92.9935 677.628 87.1549 676.859 79.4727H675.938C675.169 87.1549 674.401 92.9935 673.633 96.9883C673.018 100.829 671.021 107.052 667.641 115.656L639.293 188.945ZM849.711 203.004C849.711 169.202 857.009 139.855 871.605 114.965C886.355 89.9206 911.784 77.3984 947.891 77.3984C961.719 77.3984 973.549 79.3958 983.383 83.3906C993.216 87.3854 1002.13 95.9896 1010.12 109.203H1011.04C1010.42 103.057 1010.12 96.9115 1010.12 90.7656V-2.34375C1010.12 -11.5625 1014.73 -16.1719 1023.95 -16.1719H1060.82C1070.04 -16.1719 1074.65 -11.5625 1074.65 -2.34375V310.172C1074.65 319.391 1070.04 324 1060.82 324H1024.41C1016.72 324 1012.58 319.391 1011.96 310.172L1011.04 296.805H1010.12C1002.13 310.018 993.216 318.622 983.383 322.617C973.549 326.612 961.719 328.609 947.891 328.609C911.784 328.609 886.355 316.164 871.605 291.273C857.009 266.229 849.711 236.806 849.711 203.004ZM917.93 203.004C917.93 227.587 921.079 247.177 927.379 261.773C933.832 276.216 947.43 283.438 968.172 283.438C979.695 283.438 989.529 276.984 997.672 264.078C1005.97 251.018 1010.12 234.117 1010.12 213.375V192.633C1010.12 171.891 1005.97 155.066 997.672 142.16C989.529 129.1 979.695 122.57 968.172 122.57C947.43 122.57 933.832 129.868 927.379 144.465C921.079 158.908 917.93 178.421 917.93 203.004ZM1151.16 324C1141.95 324 1137.34 319.391 1137.34 310.172V95.8359C1137.34 86.6172 1141.95 82.0078 1151.16 82.0078H1187.58C1196.8 82.0078 1201.41 86.6172 1201.41 95.8359V114.734H1202.33C1206.32 104.901 1213.01 96.2201 1222.38 88.6914C1231.75 81.1628 1242.81 77.3984 1255.57 77.3984C1264.32 77.3984 1271.55 78.474 1277.23 80.625C1282.61 82.6224 1284.68 86.3099 1283.45 91.6875L1277 119.113C1275.62 125.259 1271.47 127.103 1264.55 124.645C1260.56 123.262 1256.72 122.57 1253.03 122.57C1238.28 122.57 1226.07 131.405 1216.39 149.074C1206.71 166.743 1201.87 192.479 1201.87 226.281V310.172C1201.87 319.391 1197.26 324 1188.04 324H1151.16ZM1332.31 324C1323.09 324 1318.48 319.391 1318.48 310.172V95.8359C1318.48 86.6172 1323.09 82.0078 1332.31 82.0078H1369.19C1378.41 82.0078 1383.02 86.6172 1383.02 95.8359V310.172C1383.02 319.391 1378.41 324 1369.19 324H1332.31ZM1332.31 46.5156C1323.09 46.5156 1318.48 41.9062 1318.48 32.6875V3.1875C1318.48 -6.03125 1323.09 -10.6406 1332.31 -10.6406H1369.19C1378.41 -10.6406 1383.02 -6.03125 1383.02 3.1875V32.6875C1383.02 41.9062 1378.41 46.5156 1369.19 46.5156H1332.31ZM1602.19 324C1591.13 324 1587.52 318.93 1591.36 308.789L1704.29 12.1758C1709.05 -0.269531 1716.27 -6.49219 1725.95 -6.49219H1758.22C1767.9 -6.49219 1775.12 -0.269531 1779.88 12.1758L1892.81 308.789C1896.65 318.93 1893.04 324 1881.98 324H1845.34C1835.2 324 1828.13 318.699 1824.13 308.098L1800.62 246.102H1683.55L1660.04 308.098C1656.04 318.699 1648.98 324 1638.84 324H1602.19ZM1704.98 188.945H1779.19L1750.84 115.656C1747.46 107.052 1745.39 100.829 1744.62 96.9883C1744.01 92.9935 1743.32 87.1549 1742.55 79.4727H1741.62C1740.86 87.1549 1740.09 92.9935 1739.32 96.9883C1738.71 100.829 1736.71 107.052 1733.33 115.656L1704.98 188.945ZM1949.97 324C1939.21 324 1933.84 318.238 1933.84 306.715V10.793C1933.84 -0.730469 1939.21 -6.49219 1949.97 -6.49219H1985C1995.76 -6.49219 2001.13 -0.730469 2001.13 10.793V306.715C2001.13 318.238 1995.76 324 1985 324H1949.97Z" fill="white"/>
</g>
<defs>
<linearGradient id="paint0_linear_299_4424" x1="351.345" y1="156.015" x2="351.345" y2="164.716" gradientUnits="userSpaceOnUse">
<stop stop-color="#1C5CFF"/>
<stop offset="1" stop-color="#113799"/>
</linearGradient>
<linearGradient id="paint1_linear_299_4424" x1="295.633" y1="116.863" x2="295.633" y2="125.564" gradientUnits="userSpaceOnUse">
<stop stop-color="#1C5CFF"/>
<stop offset="1" stop-color="#113799"/>
</linearGradient>
<linearGradient id="paint2_linear_299_4424" x1="295.633" y1="195.167" x2="295.633" y2="203.868" gradientUnits="userSpaceOnUse">
<stop stop-color="#1C5CFF"/>
<stop offset="1" stop-color="#113799"/>
</linearGradient>
<linearGradient id="paint3_linear_299_4424" x1="212.067" y1="116.863" x2="212.067" y2="125.564" gradientUnits="userSpaceOnUse">
<stop stop-color="#1C5CFF"/>
<stop offset="1" stop-color="#113799"/>
</linearGradient>
<linearGradient id="paint4_linear_299_4424" x1="212.067" y1="195.167" x2="212.067" y2="203.868" gradientUnits="userSpaceOnUse">
<stop stop-color="#1C5CFF"/>
<stop offset="1" stop-color="#113799"/>
</linearGradient>
<linearGradient id="paint5_linear_299_4424" x1="156.356" y1="156.015" x2="156.356" y2="164.716" gradientUnits="userSpaceOnUse">
<stop stop-color="#1C5CFF"/>
<stop offset="1" stop-color="#113799"/>
</linearGradient>
<linearGradient id="paint6_linear_299_4424" x1="167.498" y1="49" x2="167.498" y2="109.903" gradientUnits="userSpaceOnUse">
<stop stop-color="#1C5CFF"/>
<stop offset="1" stop-color="#113799"/>
</linearGradient>
<linearGradient id="paint7_linear_299_4424" x1="340.202" y1="210.828" x2="340.202" y2="271.731" gradientUnits="userSpaceOnUse">
<stop stop-color="#1C5CFF"/>
<stop offset="1" stop-color="#113799"/>
</linearGradient>
<linearGradient id="paint8_linear_299_4424" x1="340.202" y1="210.828" x2="340.202" y2="271.731" gradientUnits="userSpaceOnUse">
<stop stop-color="#1C5CFF"/>
<stop offset="1" stop-color="#113799"/>
</linearGradient>
<linearGradient id="paint9_linear_299_4424" x1="253.85" y1="116.863" x2="253.85" y2="203.868" gradientUnits="userSpaceOnUse">
<stop stop-color="#1C5CFF"/>
<stop offset="1" stop-color="#113799"/>
</linearGradient>
<linearGradient id="paint10_linear_299_4424" x1="184.211" y1="208.218" x2="184.211" y2="243.019" gradientUnits="userSpaceOnUse">
<stop stop-color="#1C5CFF"/>
<stop offset="1" stop-color="#113799"/>
</linearGradient>
<linearGradient id="paint11_linear_299_4424" x1="323.489" y1="77.7114" x2="323.489" y2="112.513" gradientUnits="userSpaceOnUse">
<stop stop-color="#1C5CFF"/>
<stop offset="1" stop-color="#113799"/>
</linearGradient>
<linearGradient id="paint12_linear_299_4424" x1="253.85" y1="49" x2="253.85" y2="83.8017" gradientUnits="userSpaceOnUse">
<stop stop-color="#1C5CFF"/>
<stop offset="1" stop-color="#113799"/>
</linearGradient>
<linearGradient id="paint13_linear_299_4424" x1="253.85" y1="236.929" x2="253.85" y2="271.731" gradientUnits="userSpaceOnUse">
<stop stop-color="#1C5CFF"/>
<stop offset="1" stop-color="#113799"/>
</linearGradient>
<clipPath id="clip0_299_4424">
<rect width="237.7" height="222.731" fill="white" transform="translate(135 49)"/>
</clipPath>
</defs>
</svg>
