<svg width="2080" height="700" viewBox="0 0 2080 700" fill="none" xmlns="http://www.w3.org/2000/svg">
<path d="M90.01 167.093C91.534 161.713 96.4453 158 102.037 158H495.467C503.76 158 509.754 165.928 507.494 173.907L421.99 475.735C420.466 481.115 415.555 484.828 409.963 484.828H16.533C8.2399 484.828 2.24587 476.9 4.50623 468.921L90.01 167.093Z" fill="url(#paint0_linear_107_167)"/>
<g clip-path="url(#clip0_107_167)">
<path d="M353.681 325.872C356.245 325.872 358.323 323.925 358.323 321.522C358.323 319.12 356.245 317.172 353.681 317.172C351.117 317.172 349.038 319.12 349.038 321.522C349.038 323.925 351.117 325.872 353.681 325.872Z" fill="url(#paint1_linear_107_167)"/>
<path d="M297.969 286.72C300.533 286.72 302.612 284.773 302.612 282.37C302.612 279.968 300.533 278.02 297.969 278.02C295.405 278.02 293.327 279.968 293.327 282.37C293.327 284.773 295.405 286.72 297.969 286.72Z" fill="url(#paint2_linear_107_167)"/>
<path d="M297.969 365.024C300.533 365.024 302.612 363.077 302.612 360.674C302.612 358.272 300.533 356.324 297.969 356.324C295.405 356.324 293.327 358.272 293.327 360.674C293.327 363.077 295.405 365.024 297.969 365.024Z" fill="url(#paint3_linear_107_167)"/>
<path d="M214.403 286.72C216.967 286.72 219.045 284.773 219.045 282.37C219.045 279.968 216.967 278.02 214.403 278.02C211.839 278.02 209.76 279.968 209.76 282.37C209.76 284.773 211.839 286.72 214.403 286.72Z" fill="url(#paint4_linear_107_167)"/>
<path d="M214.403 365.024C216.967 365.024 219.045 363.077 219.045 360.674C219.045 358.272 216.967 356.324 214.403 356.324C211.839 356.324 209.76 358.272 209.76 360.674C209.76 363.077 211.839 365.024 214.403 365.024Z" fill="url(#paint5_linear_107_167)"/>
<path d="M158.692 325.872C161.256 325.872 163.334 323.925 163.334 321.522C163.334 319.12 161.256 317.172 158.692 317.172C156.128 317.172 154.049 319.12 154.049 321.522C154.049 323.925 156.128 325.872 158.692 325.872Z" fill="url(#paint6_linear_107_167)"/>
<path d="M165.191 266.709C165.191 254.716 154.778 244.958 141.979 244.958C139.415 244.958 137.336 243.01 137.336 240.608C137.336 238.206 139.415 236.258 141.979 236.258C154.778 236.258 165.191 226.5 165.191 214.507C165.191 212.105 167.27 210.157 169.834 210.157C172.398 210.157 174.477 212.105 174.477 214.507C174.477 226.5 184.89 236.258 197.69 236.258C200.253 236.258 202.332 238.206 202.332 240.608C202.332 243.01 200.253 244.958 197.69 244.958C184.89 244.958 174.477 254.716 174.477 266.709C174.477 269.112 172.398 271.06 169.834 271.06C167.27 271.06 165.191 269.112 165.191 266.709Z" fill="url(#paint7_linear_107_167)"/>
<path d="M342.118 413.142L342.538 413.796L342.959 413.142C345.659 408.941 349.431 405.406 353.921 402.872L354.692 402.436L353.921 402.001C349.431 399.466 345.659 395.931 342.959 391.73L342.538 391.076L342.118 391.73C339.417 395.931 335.646 399.466 331.156 402.001L330.384 402.436L331.156 402.872C335.645 405.406 339.417 408.941 342.118 413.142ZM352.68 402.436C348.606 404.877 345.137 408.135 342.538 411.964C339.94 408.135 336.47 404.877 332.396 402.436C336.471 399.995 339.94 396.737 342.538 392.908C345.137 396.738 348.606 399.995 352.68 402.436ZM346.681 376.335C346.681 388.635 357.349 398.586 370.394 398.586C372.712 398.586 374.536 400.34 374.536 402.436C374.536 404.532 372.712 406.286 370.394 406.286C357.349 406.286 346.681 416.238 346.681 428.537C346.681 430.633 344.857 432.388 342.538 432.388C340.22 432.388 338.396 430.633 338.396 428.537C338.396 416.238 327.727 406.286 314.683 406.286C312.364 406.286 310.54 404.532 310.54 402.436C310.54 400.34 312.364 398.586 314.683 398.586C327.727 398.586 338.396 388.635 338.396 376.335C338.396 374.239 340.22 372.485 342.538 372.485C344.857 372.485 346.681 374.239 346.681 376.335Z" fill="url(#paint8_linear_107_167)" stroke="url(#paint9_linear_107_167)"/>
<path d="M297.969 317.172C277.49 317.172 260.829 301.56 260.829 282.37C260.829 279.968 258.75 278.02 256.186 278.02C253.622 278.02 251.544 279.968 251.544 282.37C251.544 301.56 234.882 317.172 214.403 317.172C211.839 317.172 209.76 319.12 209.76 321.522C209.76 323.924 211.839 325.872 214.403 325.872C234.882 325.872 251.544 341.484 251.544 360.674C251.544 363.076 253.622 365.024 256.186 365.024C258.75 365.024 260.829 363.076 260.829 360.674C260.829 341.484 277.49 325.872 297.969 325.872C300.533 325.872 302.612 323.924 302.612 321.522C302.612 319.12 300.533 317.172 297.969 317.172Z" fill="url(#paint10_linear_107_167)"/>
<path d="M186.547 404.176C189.111 404.176 191.19 402.228 191.19 399.826V391.126H200.475C203.039 391.126 205.118 389.178 205.118 386.775C205.118 384.373 203.039 382.425 200.475 382.425H191.19V373.725C191.19 371.323 189.111 369.375 186.547 369.375C183.984 369.375 181.905 371.323 181.905 373.725V382.425H172.62C170.056 382.425 167.977 384.373 167.977 386.775C167.977 389.178 170.056 391.126 172.62 391.126H181.905V399.826C181.905 402.228 183.984 404.176 186.547 404.176Z" fill="url(#paint11_linear_107_167)"/>
<path d="M325.825 273.67C328.388 273.67 330.467 271.722 330.467 269.32V260.619H339.752C342.316 260.619 344.395 258.671 344.395 256.269C344.395 253.867 342.316 251.919 339.752 251.919H330.467V243.218C330.467 240.816 328.388 238.868 325.825 238.868C323.261 238.868 321.182 240.816 321.182 243.218V251.919H311.897C309.333 251.919 307.254 253.867 307.254 256.269C307.254 258.671 309.333 260.619 311.897 260.619H321.182V269.32C321.182 271.722 323.261 273.67 325.825 273.67Z" fill="url(#paint12_linear_107_167)"/>
<path d="M256.186 210.157C253.622 210.157 251.543 212.105 251.543 214.507V223.207H242.258C239.695 223.207 237.616 225.155 237.616 227.558C237.616 229.96 239.695 231.908 242.258 231.908H251.543V240.608C251.543 243.01 253.622 244.958 256.186 244.958C258.75 244.958 260.829 243.01 260.829 240.608V231.908H270.114C272.677 231.908 274.756 229.96 274.756 227.558C274.756 225.155 272.677 223.207 270.114 223.207H260.829V214.507C260.829 212.105 258.75 210.157 256.186 210.157Z" fill="url(#paint13_linear_107_167)"/>
<path d="M256.186 432.888C258.75 432.888 260.829 430.94 260.829 428.537V419.837H270.114C272.677 419.837 274.756 417.889 274.756 415.487C274.756 413.085 272.677 411.137 270.114 411.137H260.829V402.436C260.829 400.034 258.75 398.086 256.186 398.086C253.622 398.086 251.543 400.034 251.543 402.436V411.137H242.258C239.695 411.137 237.616 413.085 237.616 415.487C237.616 417.889 239.695 419.837 242.258 419.837H251.543V428.537C251.543 430.94 253.622 432.888 256.186 432.888Z" fill="url(#paint14_linear_107_167)"/>
</g>
<path d="M577.504 485C566.441 485 562.831 479.93 566.672 469.789L679.602 173.176C684.365 160.73 691.586 154.508 701.266 154.508H733.531C743.211 154.508 750.432 160.73 755.195 173.176L868.125 469.789C871.966 479.93 868.355 485 857.293 485H820.648C810.508 485 803.44 479.699 799.445 469.098L775.938 407.102H658.859L635.352 469.098C631.357 479.699 624.289 485 614.148 485H577.504ZM680.293 349.945H754.504L726.156 276.656C722.776 268.052 720.702 261.829 719.934 257.988C719.319 253.993 718.628 248.155 717.859 240.473H716.938C716.169 248.155 715.401 253.993 714.633 257.988C714.018 261.829 712.021 268.052 708.641 276.656L680.293 349.945ZM890.711 364.004C890.711 330.202 898.009 300.855 912.605 275.965C927.355 250.921 952.784 238.398 988.891 238.398C1002.72 238.398 1014.55 240.396 1024.38 244.391C1034.22 248.385 1043.13 256.99 1051.12 270.203H1052.04C1051.42 264.057 1051.12 257.911 1051.12 251.766V158.656C1051.12 149.438 1055.73 144.828 1064.95 144.828H1101.82C1111.04 144.828 1115.65 149.438 1115.65 158.656V471.172C1115.65 480.391 1111.04 485 1101.82 485H1065.41C1057.72 485 1053.58 480.391 1052.96 471.172L1052.04 457.805H1051.12C1043.13 471.018 1034.22 479.622 1024.38 483.617C1014.55 487.612 1002.72 489.609 988.891 489.609C952.784 489.609 927.355 477.164 912.605 452.273C898.009 427.229 890.711 397.806 890.711 364.004ZM958.93 364.004C958.93 388.587 962.079 408.177 968.379 422.773C974.832 437.216 988.43 444.438 1009.17 444.438C1020.7 444.438 1030.53 437.984 1038.67 425.078C1046.97 412.018 1051.12 395.117 1051.12 374.375V353.633C1051.12 332.891 1046.97 316.066 1038.67 303.16C1030.53 290.1 1020.7 283.57 1009.17 283.57C988.43 283.57 974.832 290.868 968.379 305.465C962.079 319.908 958.93 339.421 958.93 364.004ZM1192.16 485C1182.95 485 1178.34 480.391 1178.34 471.172V256.836C1178.34 247.617 1182.95 243.008 1192.16 243.008H1228.58C1237.8 243.008 1242.41 247.617 1242.41 256.836V275.734H1243.33C1247.32 265.901 1254.01 257.22 1263.38 249.691C1272.75 242.163 1283.81 238.398 1296.57 238.398C1305.32 238.398 1312.55 239.474 1318.23 241.625C1323.61 243.622 1325.68 247.31 1324.45 252.688L1318 280.113C1316.62 286.259 1312.47 288.103 1305.55 285.645C1301.56 284.262 1297.72 283.57 1294.03 283.57C1279.28 283.57 1267.07 292.405 1257.39 310.074C1247.71 327.743 1242.87 353.479 1242.87 387.281V471.172C1242.87 480.391 1238.26 485 1229.04 485H1192.16ZM1373.31 485C1364.09 485 1359.48 480.391 1359.48 471.172V256.836C1359.48 247.617 1364.09 243.008 1373.31 243.008H1410.19C1419.41 243.008 1424.02 247.617 1424.02 256.836V471.172C1424.02 480.391 1419.41 485 1410.19 485H1373.31ZM1373.31 207.516C1364.09 207.516 1359.48 202.906 1359.48 193.688V164.188C1359.48 154.969 1364.09 150.359 1373.31 150.359H1410.19C1419.41 150.359 1424.02 154.969 1424.02 164.188V193.688C1424.02 202.906 1419.41 207.516 1410.19 207.516H1373.31ZM1643.19 485C1632.13 485 1628.52 479.93 1632.36 469.789L1745.29 173.176C1750.05 160.73 1757.27 154.508 1766.95 154.508H1799.22C1808.9 154.508 1816.12 160.73 1820.88 173.176L1933.81 469.789C1937.65 479.93 1934.04 485 1922.98 485H1886.34C1876.2 485 1869.13 479.699 1865.13 469.098L1841.62 407.102H1724.55L1701.04 469.098C1697.04 479.699 1689.98 485 1679.84 485H1643.19ZM1745.98 349.945H1820.19L1791.84 276.656C1788.46 268.052 1786.39 261.829 1785.62 257.988C1785.01 253.993 1784.32 248.155 1783.55 240.473H1782.62C1781.86 248.155 1781.09 253.993 1780.32 257.988C1779.71 261.829 1777.71 268.052 1774.33 276.656L1745.98 349.945ZM1990.97 485C1980.21 485 1974.84 479.238 1974.84 467.715V171.793C1974.84 160.27 1980.21 154.508 1990.97 154.508H2026C2036.76 154.508 2042.13 160.27 2042.13 171.793V467.715C2042.13 479.238 2036.76 485 2026 485H1990.97Z" fill="url(#paint15_linear_107_167)"/>
<defs>
<linearGradient id="paint0_linear_107_167" x1="256" y1="158" x2="256" y2="484.828" gradientUnits="userSpaceOnUse">
<stop stop-color="#1C5CFF"/>
<stop offset="1" stop-color="#113799"/>
</linearGradient>
<linearGradient id="paint1_linear_107_167" x1="353.681" y1="317.172" x2="353.681" y2="325.872" gradientUnits="userSpaceOnUse">
<stop stop-color="#E5C4FF"/>
<stop offset="1" stop-color="#D2ABEF"/>
</linearGradient>
<linearGradient id="paint2_linear_107_167" x1="297.969" y1="278.02" x2="297.969" y2="286.72" gradientUnits="userSpaceOnUse">
<stop stop-color="#E5C4FF"/>
<stop offset="1" stop-color="#D2ABEF"/>
</linearGradient>
<linearGradient id="paint3_linear_107_167" x1="297.969" y1="356.324" x2="297.969" y2="365.024" gradientUnits="userSpaceOnUse">
<stop stop-color="#E5C4FF"/>
<stop offset="1" stop-color="#D2ABEF"/>
</linearGradient>
<linearGradient id="paint4_linear_107_167" x1="214.403" y1="278.02" x2="214.403" y2="286.72" gradientUnits="userSpaceOnUse">
<stop stop-color="#E5C4FF"/>
<stop offset="1" stop-color="#D2ABEF"/>
</linearGradient>
<linearGradient id="paint5_linear_107_167" x1="214.403" y1="356.324" x2="214.403" y2="365.024" gradientUnits="userSpaceOnUse">
<stop stop-color="#E5C4FF"/>
<stop offset="1" stop-color="#D2ABEF"/>
</linearGradient>
<linearGradient id="paint6_linear_107_167" x1="158.692" y1="317.172" x2="158.692" y2="325.872" gradientUnits="userSpaceOnUse">
<stop stop-color="#E5C4FF"/>
<stop offset="1" stop-color="#D2ABEF"/>
</linearGradient>
<linearGradient id="paint7_linear_107_167" x1="169.834" y1="210.157" x2="169.834" y2="271.06" gradientUnits="userSpaceOnUse">
<stop stop-color="#E5C4FF"/>
<stop offset="1" stop-color="#D2ABEF"/>
</linearGradient>
<linearGradient id="paint8_linear_107_167" x1="342.538" y1="371.985" x2="342.538" y2="432.888" gradientUnits="userSpaceOnUse">
<stop stop-color="#E5C4FF"/>
<stop offset="1" stop-color="#D2ABEF"/>
</linearGradient>
<linearGradient id="paint9_linear_107_167" x1="342.538" y1="371.985" x2="342.538" y2="432.888" gradientUnits="userSpaceOnUse">
<stop stop-color="#E5C4FF"/>
<stop offset="1" stop-color="#D2ABEF"/>
</linearGradient>
<linearGradient id="paint10_linear_107_167" x1="256.186" y1="278.02" x2="256.186" y2="365.024" gradientUnits="userSpaceOnUse">
<stop stop-color="#E5C4FF"/>
<stop offset="1" stop-color="#D2ABEF"/>
</linearGradient>
<linearGradient id="paint11_linear_107_167" x1="186.547" y1="369.375" x2="186.547" y2="404.176" gradientUnits="userSpaceOnUse">
<stop stop-color="#E5C4FF"/>
<stop offset="1" stop-color="#D2ABEF"/>
</linearGradient>
<linearGradient id="paint12_linear_107_167" x1="325.825" y1="238.868" x2="325.825" y2="273.67" gradientUnits="userSpaceOnUse">
<stop stop-color="#E5C4FF"/>
<stop offset="1" stop-color="#D2ABEF"/>
</linearGradient>
<linearGradient id="paint13_linear_107_167" x1="256.186" y1="210.157" x2="256.186" y2="244.958" gradientUnits="userSpaceOnUse">
<stop stop-color="#E5C4FF"/>
<stop offset="1" stop-color="#D2ABEF"/>
</linearGradient>
<linearGradient id="paint14_linear_107_167" x1="256.186" y1="398.086" x2="256.186" y2="432.888" gradientUnits="userSpaceOnUse">
<stop stop-color="#E5C4FF"/>
<stop offset="1" stop-color="#D2ABEF"/>
</linearGradient>
<linearGradient id="paint15_linear_107_167" x1="1315.5" y1="0" x2="1315.5" y2="700" gradientUnits="userSpaceOnUse">
<stop stop-color="#1C5CFF"/>
<stop offset="1" stop-color="#113799"/>
</linearGradient>
<clipPath id="clip0_107_167">
<rect width="237.7" height="222.731" fill="white" transform="translate(137.336 210.157)"/>
</clipPath>
</defs>
</svg>
